<?xml version="1.0" encoding="UTF-8"?>
<svg id="Capa_1" data-name="Capa 1" xmlns="http://www.w3.org/2000/svg" viewBox="0 0 543.62 336.48">
  <defs>
    <style>
      .cls-1 {
        fill: #fff;
      }

      .cls-2 {
        fill: #ff2c2c;
      }

      .cls-3 {
        stroke: #000;
        stroke-miterlimit: 10;
        stroke-width: .5px;
      }
    </style>
  </defs>
  <path class="cls-1" d="M271.81,244.71c-65.49,0-124.1-29.73-163.23-76.47,21.3-25.45,48.39-45.88,79.24-59.16,13.88,43.8,46.26,74.45,83.99,74.45s70.11-30.65,83.99-74.45c30.86,13.28,57.94,33.71,79.24,59.16-39.13,46.74-97.75,76.47-163.23,76.47Z"/>
  <path class="cls-3" d="M271.81,183.54c-37.73,0-70.11-30.65-83.99-74.45,25.74-11.13,54.17-17.31,83.99-17.31s58.25,6.18,83.99,17.31c-13.88,43.8-46.26,74.45-83.99,74.45Z"/>
  <path d="M478.68,254.81c26.48-24.59,48.51-53.9,64.94-86.57-16.43-32.67-38.47-61.97-64.94-86.57-34.57-32.3-76.69-56.59-123.37-69.99-26.54-7.59-54.53-11.68-83.5-11.68s-56.97,4.1-83.5,11.68c-46.68,13.4-88.8,37.69-123.37,69.99C38.47,106.27,16.43,135.57,0,168.24c16.43,32.67,38.47,61.97,64.94,86.57,54.29,50.72,127.02,81.67,206.87,81.67s152.58-30.96,206.87-81.67ZM113.13,173.5c-2.65-2.97-2.65-7.55,0-10.51,20.56-23.01,45.99-41.55,74.7-53.9,25.74-11.13,54.17-17.31,83.99-17.31s58.25,6.18,83.99,17.31c28.7,12.35,54.14,30.89,74.7,53.9,2.65,2.97,2.65,7.55,0,10.51-39.05,43.7-95.69,71.22-158.69,71.22s-119.63-27.51-158.69-71.22Z"/>
  <path class="cls-2" d="M289.2,109.25c-2.75,10.4-8.19,20.24-16.31,28.4-8.12-8.16-13.56-18-16.31-28.4-10.35-2.77-20.13-8.23-28.25-16.4,8.12-8.16,17.91-13.63,28.25-16.4,2.75-10.4,8.19-20.24,16.31-28.4,8.12,8.16,13.56,18,16.31,28.4,10.35,2.77,20.13,8.23,28.25,16.4-8.12,8.16-17.91,13.63-28.25,16.4Z"/>
</svg>